<svg xmlns="http://www.w3.org/2000/svg">
  <symbol viewBox="0 0 17 20" id="icon-android">
    <path fill="currentColor"
      d="M13.362 6.638v8.35c0 .502-.334.836-.836.836h-.836v2.924c0 .669-.583 1.252-1.251 1.252-.67 0-1.252-.583-1.252-1.252v-2.924H7.515v2.924c0 .669-.583 1.252-1.252 1.252s-1.252-.583-1.252-1.252v-2.924h-.836c-.501 0-.836-.334-.836-.835v-8.35h10.023Zm2.088 0c.669 0 1.252.586 1.252 1.251v5.848c0 .668-.583 1.252-1.252 1.252s-1.252-.584-1.252-1.252V7.889c0-.665.583-1.25 1.252-1.25Zm-14.198 0c.669 0 1.252.586 1.252 1.251v5.848c0 .668-.583 1.252-1.252 1.252S0 14.405 0 13.737V7.889c0-.665.583-1.25 1.252-1.25ZM11.776.126a.4.4 0 0 1 .583 0 .401.401 0 0 1 0 .583l-1.085 1.084c.35.234.667.52.942.846.66.782 1.081 1.8 1.139 2.902l.002.034c.003.075.005.15.005.227H3.34c0-.076.002-.152.006-.227l.002-.034a4.908 4.908 0 0 1 1.138-2.902 4.52 4.52 0 0 1 .942-.846L4.343.71a.4.4 0 0 1 0-.583.4.4 0 0 1 .583 0l1.12 1.118.053.051c.664-.333 1.41-.499 2.24-.5h.024c.83.001 1.575.167 2.24.5l.052-.051ZM6.262 3.09a.626.626 0 1 0 0 1.252.626.626 0 0 0 0-1.252Zm4.178 0a.626.626 0 1 0 0 1.252.626.626 0 0 0 0-1.252Z">
    </path>
  </symbol>

  <symbol viewBox="0 0 20 20" id="icon-instagram">
    <path fill="currentColor"
      d="M10 1.802c2.67 0 2.987.01 4.042.059 2.71.123 3.975 1.409 4.099 4.099.048 1.054.057 1.37.057 4.04 0 2.672-.01 2.988-.057 4.042-.124 2.687-1.387 3.975-4.1 4.099-1.054.048-1.37.058-4.041.058-2.67 0-2.987-.01-4.04-.058-2.718-.124-3.977-1.416-4.1-4.1-.048-1.054-.058-1.37-.058-4.041 0-2.67.01-2.986.058-4.04.124-2.69 1.387-3.977 4.1-4.1 1.054-.048 1.37-.058 4.04-.058ZM10 0C7.284 0 6.944.012 5.877.06 2.246.227.227 2.242.061 5.877.01 6.944 0 7.284 0 10s.012 3.057.06 4.123c.167 3.632 2.182 5.65 5.817 5.817 1.067.048 1.407.06 4.123.06s3.057-.012 4.123-.06c3.629-.167 5.652-2.182 5.816-5.817.05-1.066.061-1.407.061-4.123s-.012-3.056-.06-4.122C19.777 2.249 17.76.228 14.124.06 13.057.01 12.716 0 10 0Zm0 4.865a5.135 5.135 0 1 0 0 10.27 5.135 5.135 0 0 0 0-10.27Zm0 8.468a3.333 3.333 0 1 1 0-6.666 3.333 3.333 0 0 1 0 6.666Zm5.338-9.87a1.2 1.2 0 1 0 0 2.4 1.2 1.2 0 0 0 0-2.4Z">
    </path>
  </symbol>

  <symbol viewBox="0 0 18 20" id="icon-apple">
    <path fill="currentColor"
      d="M12.683 4.681c1.359 0 2.798.745 3.821 2.029-3.356 1.851-2.812 6.674.58 7.965-.467 1.04-.69 1.504-1.292 2.425-.839 1.285-2.02 2.886-3.486 2.897-1.302.014-1.637-.852-3.403-.842-1.766.009-2.134.857-3.437.845C4 19.987 2.88 18.542 2.042 17.257-.302 13.667-.549 9.45.897 7.207c1.029-1.592 2.651-2.523 4.175-2.523 1.551 0 2.527.856 3.812.856 1.247 0 2.005-.859 3.8-.859ZM12.291 0c.178 1.215-.315 2.405-.968 3.246-.697.904-1.901 1.603-3.066 1.566-.213-1.163.332-2.36.995-3.167C9.978.756 11.224.074 12.291 0Z">
    </path>
  </symbol>

  <symbol viewBox="0 0 640 640" id="icon-x-twitter">
    <path fill="currentColor"
      d="M453.2 112L523.8 112L369.6 288.2L551 528L409 528L297.7 382.6L170.5 528L99.8 528L264.7 339.5L90.8 112L236.4 112L336.9 244.9L453.2 112zM428.4 485.8L467.5 485.8L215.1 152L173.1 152L428.4 485.8z">
    </path>
  </symbol>

  <symbol viewBox="0 0 640 640" id="icon-facebook">
    <path fill="currentColor"
      d="M240 363.3L240 576L356 576L356 363.3L442.5 363.3L460.5 265.5L356 265.5L356 230.9C356 179.2 376.3 159.4 428.7 159.4C445 159.4 458.1 159.8 465.7 160.6L465.7 71.9C451.4 68 416.4 64 396.2 64C289.3 64 240 114.5 240 223.4L240 265.5L174 265.5L174 363.3L240 363.3z">
    </path>
  </symbol>
</svg>